STARTFONT 2.1
FONT --Toronto-Regular-R-Normal--17-140-87-87-P-92-APPLE-ROMAN
SIZE 14 87 87
FONTBOUNDINGBOX 18 17 0 -3
METRICSSET 2
STARTPROPERTIES 19
FONT_ASCENT 14
FONT_DESCENT 3
PIXEL_SIZE 17
RESOLUTION_X 87
RESOLUTION_Y 87
POINT_SIZE 140
FACE_NAME "Toronto Regular 14"
FOUNDRY ""
FAMILY_NAME "Toronto"
WEIGHT_NAME "Regular"
RELATIVE_WEIGHT 50
SLANT "R"
SPACING "P"
SETWIDTH_NAME "Normal"
RELATIVE_SETWIDTH 50
ADD_STYLE_NAME ""
AVERAGE_WIDTH 92
CHARSET_REGISTRY "APPLE"
CHARSET_ENCODING "ROMAN"
ENDPROPERTIES
CHARS 173
STARTCHAR char00
ENCODING 0
SWIDTH 0 0
DWIDTH 0 0
BBX 0 0 0 -3
VVECTOR 0 -3
SWIDTH1 0 0
DWIDTH1 0 0
BITMAP 
ENDCHAR
STARTCHAR char02
ENCODING 2
SWIDTH 0 0
DWIDTH 0 0
BBX 0 0 0 -3
VVECTOR 0 -3
SWIDTH1 0 0
DWIDTH1 0 0
BITMAP 
ENDCHAR
STARTCHAR char09
ENCODING 9
SWIDTH 591 0
DWIDTH 10 0
BBX 0 0 10 -3
VVECTOR 10 -3
SWIDTH1 0 0
DWIDTH1 0 0
BITMAP 
ENDCHAR
STARTCHAR char0D
ENCODING 13
SWIDTH 0 0
DWIDTH 0 0
BBX 0 0 0 -3
VVECTOR 0 -3
SWIDTH1 0 0
DWIDTH1 0 0
BITMAP 
ENDCHAR
STARTCHAR space
ENCODING 32
SWIDTH 296 0
DWIDTH 5 0
BBX 0 0 5 -3
VVECTOR 5 -3
SWIDTH1 0 0
DWIDTH1 0 0
BITMAP 
ENDCHAR
STARTCHAR exclam
ENCODING 33
SWIDTH 236 0
DWIDTH 4 0
BBX 1 11 2 0
VVECTOR 3 14
SWIDTH1 0 -1005
DWIDTH1 0 -17
BITMAP 
80
80
80
80
80
80
80
80
80
00
80
ENDCHAR
STARTCHAR quotedbl
ENCODING 34
SWIDTH 296 0
DWIDTH 5 0
BBX 3 3 1 8
VVECTOR 3 14
SWIDTH1 0 -1005
DWIDTH1 0 -17
BITMAP 
A0
A0
A0
ENDCHAR
STARTCHAR numbersign
ENCODING 35
SWIDTH 591 0
DWIDTH 10 0
BBX 8 8 1 1
VVECTOR 5 14
SWIDTH1 0 -1005
DWIDTH1 0 -17
BITMAP 
12
12
7F
24
24
FE
48
48
ENDCHAR
STARTCHAR dollar
ENCODING 36
SWIDTH 414 0
DWIDTH 7 0
BBX 5 13 1 -1
VVECTOR 4 14
SWIDTH1 0 -1005
DWIDTH1 0 -17
BITMAP 
20
70
A8
A0
A0
60
30
28
28
28
A8
70
20
ENDCHAR
STARTCHAR percent
ENCODING 37
SWIDTH 650 0
DWIDTH 11 0
BBX 9 10 1 0
VVECTOR 6 14
SWIDTH1 0 -1005
DWIDTH1 0 -17
BITMAP 
7F80
9100
9200
6400
0800
1000
2300
4480
8480
8300
ENDCHAR
STARTCHAR ampersand
ENCODING 38
SWIDTH 709 0
DWIDTH 12 0
BBX 10 11 1 0
VVECTOR 6 14
SWIDTH1 0 -1005
DWIDTH1 0 -17
BITMAP 
3000
4800
4800
5000
2000
5080
8880
8500
8200
4500
38C0
ENDCHAR
STARTCHAR quotesingle
ENCODING 39
SWIDTH 177 0
DWIDTH 3 0
BBX 1 3 1 8
VVECTOR 2 14
SWIDTH1 0 -1005
DWIDTH1 0 -17
BITMAP 
80
80
80
ENDCHAR
STARTCHAR parenleft
ENCODING 40
SWIDTH 355 0
DWIDTH 6 0
BBX 4 13 1 -1
VVECTOR 3 14
SWIDTH1 0 -1005
DWIDTH1 0 -17
BITMAP 
10
20
40
40
80
80
80
80
80
40
40
20
10
ENDCHAR
STARTCHAR parenright
ENCODING 41
SWIDTH 355 0
DWIDTH 6 0
BBX 4 13 1 -1
VVECTOR 3 14
SWIDTH1 0 -1005
DWIDTH1 0 -17
BITMAP 
80
40
20
20
10
10
10
10
10
20
20
40
80
ENDCHAR
STARTCHAR asterisk
ENCODING 42
SWIDTH 532 0
DWIDTH 9 0
BBX 7 7 1 4
VVECTOR 5 14
SWIDTH1 0 -1005
DWIDTH1 0 -17
BITMAP 
10
54
38
FE
38
54
10
ENDCHAR
STARTCHAR plus
ENCODING 43
SWIDTH 532 0
DWIDTH 9 0
BBX 7 7 1 2
VVECTOR 5 14
SWIDTH1 0 -1005
DWIDTH1 0 -17
BITMAP 
10
10
10
FE
10
10
10
ENDCHAR
STARTCHAR comma
ENCODING 44
SWIDTH 236 0
DWIDTH 4 0
BBX 2 3 1 -2
VVECTOR 2 14
SWIDTH1 0 -1005
DWIDTH1 0 -17
BITMAP 
40
40
80
ENDCHAR
STARTCHAR hyphen
ENCODING 45
SWIDTH 532 0
DWIDTH 9 0
BBX 7 1 1 5
VVECTOR 5 14
SWIDTH1 0 -1005
DWIDTH1 0 -17
BITMAP 
FE
ENDCHAR
STARTCHAR period
ENCODING 46
SWIDTH 177 0
DWIDTH 3 0
BBX 1 1 1 0
VVECTOR 2 14
SWIDTH1 0 -1005
DWIDTH1 0 -17
BITMAP 
80
ENDCHAR
STARTCHAR slash
ENCODING 47
SWIDTH 473 0
DWIDTH 8 0
BBX 6 12 1 -1
VVECTOR 4 14
SWIDTH1 0 -1005
DWIDTH1 0 -17
BITMAP 
04
04
08
08
10
10
20
20
40
40
80
80
ENDCHAR
STARTCHAR zero
ENCODING 48
SWIDTH 591 0
DWIDTH 10 0
BBX 8 11 1 0
VVECTOR 5 14
SWIDTH1 0 -1005
DWIDTH1 0 -17
BITMAP 
3C
42
81
81
81
81
81
81
81
42
3C
ENDCHAR
STARTCHAR one
ENCODING 49
SWIDTH 591 0
DWIDTH 10 0
BBX 3 11 4 0
VVECTOR 6 14
SWIDTH1 0 -1005
DWIDTH1 0 -17
BITMAP 
C0
40
40
40
40
40
40
40
40
40
E0
ENDCHAR
STARTCHAR two
ENCODING 50
SWIDTH 591 0
DWIDTH 10 0
BBX 8 11 1 0
VVECTOR 5 14
SWIDTH1 0 -1005
DWIDTH1 0 -17
BITMAP 
3C
42
81
81
02
04
08
10
20
41
FF
ENDCHAR
STARTCHAR three
ENCODING 51
SWIDTH 591 0
DWIDTH 10 0
BBX 8 11 1 0
VVECTOR 5 14
SWIDTH1 0 -1005
DWIDTH1 0 -17
BITMAP 
FF
82
04
08
1C
02
01
81
81
42
3C
ENDCHAR
STARTCHAR four
ENCODING 52
SWIDTH 591 0
DWIDTH 10 0
BBX 8 11 1 0
VVECTOR 5 14
SWIDTH1 0 -1005
DWIDTH1 0 -17
BITMAP 
02
06
0A
12
22
42
FF
02
02
02
07
ENDCHAR
STARTCHAR five
ENCODING 53
SWIDTH 591 0
DWIDTH 10 0
BBX 8 11 1 0
VVECTOR 5 14
SWIDTH1 0 -1005
DWIDTH1 0 -17
BITMAP 
FE
82
80
80
FC
02
01
81
81
42
3C
ENDCHAR
STARTCHAR six
ENCODING 54
SWIDTH 591 0
DWIDTH 10 0
BBX 8 11 1 0
VVECTOR 5 14
SWIDTH1 0 -1005
DWIDTH1 0 -17
BITMAP 
3C
42
80
BC
C2
81
81
81
81
42
3C
ENDCHAR
STARTCHAR seven
ENCODING 55
SWIDTH 591 0
DWIDTH 10 0
BBX 8 11 1 0
VVECTOR 5 14
SWIDTH1 0 -1005
DWIDTH1 0 -17
BITMAP 
FF
81
02
02
04
04
08
08
10
10
10
ENDCHAR
STARTCHAR eight
ENCODING 56
SWIDTH 591 0
DWIDTH 10 0
BBX 8 11 1 0
VVECTOR 5 14
SWIDTH1 0 -1005
DWIDTH1 0 -17
BITMAP 
3C
42
42
42
3C
42
81
81
81
42
3C
ENDCHAR
STARTCHAR nine
ENCODING 57
SWIDTH 591 0
DWIDTH 10 0
BBX 8 11 1 0
VVECTOR 5 14
SWIDTH1 0 -1005
DWIDTH1 0 -17
BITMAP 
3C
42
81
81
81
81
43
3D
01
42
3C
ENDCHAR
STARTCHAR colon
ENCODING 58
SWIDTH 177 0
DWIDTH 3 0
BBX 1 7 1 0
VVECTOR 2 14
SWIDTH1 0 -1005
DWIDTH1 0 -17
BITMAP 
80
00
00
00
00
00
80
ENDCHAR
STARTCHAR semicolon
ENCODING 59
SWIDTH 236 0
DWIDTH 4 0
BBX 2 9 1 -2
VVECTOR 2 14
SWIDTH1 0 -1005
DWIDTH1 0 -17
BITMAP 
40
00
00
00
00
00
40
40
80
ENDCHAR
STARTCHAR less
ENCODING 60
SWIDTH 355 0
DWIDTH 6 0
BBX 4 7 1 2
VVECTOR 3 14
SWIDTH1 0 -1005
DWIDTH1 0 -17
BITMAP 
10
20
40
80
40
20
10
ENDCHAR
STARTCHAR equal
ENCODING 61
SWIDTH 473 0
DWIDTH 8 0
BBX 6 3 1 4
VVECTOR 4 14
SWIDTH1 0 -1005
DWIDTH1 0 -17
BITMAP 
FC
00
FC
ENDCHAR
STARTCHAR greater
ENCODING 62
SWIDTH 355 0
DWIDTH 6 0
BBX 4 7 1 2
VVECTOR 3 14
SWIDTH1 0 -1005
DWIDTH1 0 -17
BITMAP 
80
40
20
10
20
40
80
ENDCHAR
STARTCHAR question
ENCODING 63
SWIDTH 591 0
DWIDTH 10 0
BBX 8 11 1 0
VVECTOR 5 14
SWIDTH1 0 -1005
DWIDTH1 0 -17
BITMAP 
3C
42
81
81
01
06
08
10
10
00
10
ENDCHAR
STARTCHAR at
ENCODING 64
SWIDTH 828 0
DWIDTH 14 0
BBX 12 13 1 -3
VVECTOR 7 14
SWIDTH1 0 -1005
DWIDTH1 0 -17
BITMAP 
1F80
2040
4020
8710
8890
9090
9090
9090
8990
86E0
4000
2000
1E00
ENDCHAR
STARTCHAR A
ENCODING 65
SWIDTH 768 0
DWIDTH 13 0
BBX 11 11 1 0
VVECTOR 7 14
SWIDTH1 0 -1005
DWIDTH1 0 -17
BITMAP 
0400
0400
0A00
0A00
1100
1100
2080
3F80
4040
4040
E0E0
ENDCHAR
STARTCHAR B
ENCODING 66
SWIDTH 650 0
DWIDTH 11 0
BBX 9 11 1 0
VVECTOR 6 14
SWIDTH1 0 -1005
DWIDTH1 0 -17
BITMAP 
FE00
4100
4100
4100
7E00
4100
4080
4080
4080
4100
FE00
ENDCHAR
STARTCHAR C
ENCODING 67
SWIDTH 709 0
DWIDTH 12 0
BBX 10 11 1 0
VVECTOR 6 14
SWIDTH1 0 -1005
DWIDTH1 0 -17
BITMAP 
1F00
2080
4040
8040
8000
8000
8000
8040
4040
2080
1F00
ENDCHAR
STARTCHAR D
ENCODING 68
SWIDTH 709 0
DWIDTH 12 0
BBX 10 11 1 0
VVECTOR 6 14
SWIDTH1 0 -1005
DWIDTH1 0 -17
BITMAP 
FE00
4100
4080
4040
4040
4040
4040
4040
4080
4100
FE00
ENDCHAR
STARTCHAR E
ENCODING 69
SWIDTH 650 0
DWIDTH 11 0
BBX 9 11 1 0
VVECTOR 6 14
SWIDTH1 0 -1005
DWIDTH1 0 -17
BITMAP 
FF80
4080
4000
4000
4200
7E00
4200
4000
4000
4080
FF80
ENDCHAR
STARTCHAR F
ENCODING 70
SWIDTH 650 0
DWIDTH 11 0
BBX 9 11 1 0
VVECTOR 6 14
SWIDTH1 0 -1005
DWIDTH1 0 -17
BITMAP 
FF80
4080
4000
4000
4200
7E00
4200
4000
4000
4000
E000
ENDCHAR
STARTCHAR G
ENCODING 71
SWIDTH 709 0
DWIDTH 12 0
BBX 10 11 1 0
VVECTOR 6 14
SWIDTH1 0 -1005
DWIDTH1 0 -17
BITMAP 
1F00
2080
4040
8000
8000
83C0
8040
8040
4040
20C0
1F40
ENDCHAR
STARTCHAR H
ENCODING 72
SWIDTH 709 0
DWIDTH 12 0
BBX 10 11 1 0
VVECTOR 6 14
SWIDTH1 0 -1005
DWIDTH1 0 -17
BITMAP 
E1C0
4080
4080
4080
4080
7F80
4080
4080
4080
4080
E1C0
ENDCHAR
STARTCHAR I
ENCODING 73
SWIDTH 296 0
DWIDTH 5 0
BBX 3 11 1 0
VVECTOR 3 14
SWIDTH1 0 -1005
DWIDTH1 0 -17
BITMAP 
E0
40
40
40
40
40
40
40
40
40
E0
ENDCHAR
STARTCHAR J
ENCODING 74
SWIDTH 650 0
DWIDTH 11 0
BBX 9 11 1 0
VVECTOR 6 14
SWIDTH1 0 -1005
DWIDTH1 0 -17
BITMAP 
0380
0100
0100
0100
0100
0100
0100
8100
8100
4200
3C00
ENDCHAR
STARTCHAR K
ENCODING 75
SWIDTH 650 0
DWIDTH 11 0
BBX 9 11 1 0
VVECTOR 6 14
SWIDTH1 0 -1005
DWIDTH1 0 -17
BITMAP 
E780
4200
4400
4800
5000
6000
5000
4800
4400
4200
E780
ENDCHAR
STARTCHAR L
ENCODING 76
SWIDTH 591 0
DWIDTH 10 0
BBX 8 11 1 0
VVECTOR 5 14
SWIDTH1 0 -1005
DWIDTH1 0 -17
BITMAP 
E0
40
40
40
40
40
40
40
40
41
FF
ENDCHAR
STARTCHAR M
ENCODING 77
SWIDTH 1123 0
DWIDTH 19 0
BBX 17 11 1 0
VVECTOR 10 14
SWIDTH1 0 -1005
DWIDTH1 0 -17
BITMAP 
DE3C00
614200
408100
408100
408100
408100
408100
408100
408100
408100
E1C380
ENDCHAR
STARTCHAR N
ENCODING 78
SWIDTH 768 0
DWIDTH 13 0
BBX 11 11 1 0
VVECTOR 7 14
SWIDTH1 0 -1005
DWIDTH1 0 -17
BITMAP 
CF00
5080
6040
4040
4040
4040
4040
4040
4040
4040
E0E0
ENDCHAR
STARTCHAR O
ENCODING 79
SWIDTH 768 0
DWIDTH 13 0
BBX 11 11 1 0
VVECTOR 7 14
SWIDTH1 0 -1005
DWIDTH1 0 -17
BITMAP 
1F00
2080
4040
8020
8020
8020
8020
8020
4040
2080
1F00
ENDCHAR
STARTCHAR P
ENCODING 80
SWIDTH 591 0
DWIDTH 10 0
BBX 8 11 1 0
VVECTOR 5 14
SWIDTH1 0 -1005
DWIDTH1 0 -17
BITMAP 
FC
42
41
41
41
42
7C
40
40
40
E0
ENDCHAR
STARTCHAR Q
ENCODING 81
SWIDTH 768 0
DWIDTH 13 0
BBX 11 12 1 -1
VVECTOR 7 14
SWIDTH1 0 -1005
DWIDTH1 0 -17
BITMAP 
1F00
2080
4040
8020
8020
8020
8020
8020
4440
2280
1F00
00C0
ENDCHAR
STARTCHAR R
ENCODING 82
SWIDTH 650 0
DWIDTH 11 0
BBX 9 11 1 0
VVECTOR 6 14
SWIDTH1 0 -1005
DWIDTH1 0 -17
BITMAP 
FC00
4200
4100
4100
4100
4200
7C00
4800
4400
4200
E180
ENDCHAR
STARTCHAR S
ENCODING 83
SWIDTH 591 0
DWIDTH 10 0
BBX 8 11 1 0
VVECTOR 5 14
SWIDTH1 0 -1005
DWIDTH1 0 -17
BITMAP 
3D
43
81
80
7C
02
01
01
81
C2
BC
ENDCHAR
STARTCHAR T
ENCODING 84
SWIDTH 650 0
DWIDTH 11 0
BBX 9 11 1 0
VVECTOR 6 14
SWIDTH1 0 -1005
DWIDTH1 0 -17
BITMAP 
FF80
8880
0800
0800
0800
0800
0800
0800
0800
0800
1C00
ENDCHAR
STARTCHAR U
ENCODING 85
SWIDTH 768 0
DWIDTH 13 0
BBX 11 11 1 0
VVECTOR 7 14
SWIDTH1 0 -1005
DWIDTH1 0 -17
BITMAP 
E0E0
4040
4040
4040
4040
4040
4040
4040
4040
2080
1F00
ENDCHAR
STARTCHAR V
ENCODING 86
SWIDTH 768 0
DWIDTH 13 0
BBX 11 11 1 0
VVECTOR 7 14
SWIDTH1 0 -1005
DWIDTH1 0 -17
BITMAP 
E0E0
4040
4040
2080
2080
1100
1100
0A00
0A00
0400
0400
ENDCHAR
STARTCHAR W
ENCODING 87
SWIDTH 1005 0
DWIDTH 17 0
BBX 15 11 1 0
VVECTOR 9 14
SWIDTH1 0 -1005
DWIDTH1 0 -17
BITMAP 
E00E
4104
4104
2288
2288
2288
1450
1450
1450
0820
0820
ENDCHAR
STARTCHAR X
ENCODING 88
SWIDTH 768 0
DWIDTH 13 0
BBX 11 11 1 0
VVECTOR 7 14
SWIDTH1 0 -1005
DWIDTH1 0 -17
BITMAP 
E0E0
4040
2080
1100
0A00
0400
0A00
1100
2080
4040
E0E0
ENDCHAR
STARTCHAR Y
ENCODING 89
SWIDTH 768 0
DWIDTH 13 0
BBX 11 11 1 0
VVECTOR 7 14
SWIDTH1 0 -1005
DWIDTH1 0 -17
BITMAP 
E0E0
4040
2080
1100
0A00
0400
0400
0400
0400
0400
0E00
ENDCHAR
STARTCHAR Z
ENCODING 90
SWIDTH 591 0
DWIDTH 10 0
BBX 8 11 1 0
VVECTOR 5 14
SWIDTH1 0 -1005
DWIDTH1 0 -17
BITMAP 
FF
81
02
04
08
10
20
40
80
81
FF
ENDCHAR
STARTCHAR bracketleft
ENCODING 91
SWIDTH 296 0
DWIDTH 5 0
BBX 3 13 1 -1
VVECTOR 3 14
SWIDTH1 0 -1005
DWIDTH1 0 -17
BITMAP 
E0
80
80
80
80
80
80
80
80
80
80
80
E0
ENDCHAR
STARTCHAR backslash
ENCODING 92
SWIDTH 473 0
DWIDTH 8 0
BBX 6 12 1 -1
VVECTOR 4 14
SWIDTH1 0 -1005
DWIDTH1 0 -17
BITMAP 
80
80
40
40
20
20
10
10
08
08
04
04
ENDCHAR
STARTCHAR bracketright
ENCODING 93
SWIDTH 296 0
DWIDTH 5 0
BBX 3 13 1 -1
VVECTOR 3 14
SWIDTH1 0 -1005
DWIDTH1 0 -17
BITMAP 
E0
20
20
20
20
20
20
20
20
20
20
20
E0
ENDCHAR
STARTCHAR asciicircum
ENCODING 94
SWIDTH 414 0
DWIDTH 7 0
BBX 5 3 1 8
VVECTOR 4 14
SWIDTH1 0 -1005
DWIDTH1 0 -17
BITMAP 
20
50
88
ENDCHAR
STARTCHAR underscore
ENCODING 95
SWIDTH 650 0
DWIDTH 11 0
BBX 11 1 0 0
VVECTOR 6 14
SWIDTH1 0 -1005
DWIDTH1 0 -17
BITMAP 
FFE0
ENDCHAR
STARTCHAR grave
ENCODING 96
SWIDTH 236 0
DWIDTH 4 0
BBX 3 3 0 8
VVECTOR 2 14
SWIDTH1 0 -1005
DWIDTH1 0 -17
BITMAP 
80
40
20
ENDCHAR
STARTCHAR a
ENCODING 97
SWIDTH 591 0
DWIDTH 10 0
BBX 9 8 0 0
VVECTOR 5 14
SWIDTH1 0 -1005
DWIDTH1 0 -17
BITMAP 
3F00
4100
8100
8100
8100
8100
4300
3D80
ENDCHAR
STARTCHAR b
ENCODING 98
SWIDTH 591 0
DWIDTH 10 0
BBX 9 11 0 0
VVECTOR 5 14
SWIDTH1 0 -1005
DWIDTH1 0 -17
BITMAP 
C000
4000
4000
5E00
6100
4080
4080
4080
4080
6100
DE00
ENDCHAR
STARTCHAR c
ENCODING 99
SWIDTH 473 0
DWIDTH 8 0
BBX 7 8 0 0
VVECTOR 4 14
SWIDTH1 0 -1005
DWIDTH1 0 -17
BITMAP 
3C
42
80
80
80
80
42
3C
ENDCHAR
STARTCHAR d
ENCODING 100
SWIDTH 591 0
DWIDTH 10 0
BBX 9 11 0 0
VVECTOR 5 14
SWIDTH1 0 -1005
DWIDTH1 0 -17
BITMAP 
0300
0100
0100
3D00
4300
8100
8100
8100
8100
4300
3D80
ENDCHAR
STARTCHAR e
ENCODING 101
SWIDTH 532 0
DWIDTH 9 0
BBX 8 8 0 0
VVECTOR 4 14
SWIDTH1 0 -1005
DWIDTH1 0 -17
BITMAP 
3C
42
81
FF
80
81
42
3C
ENDCHAR
STARTCHAR f
ENCODING 102
SWIDTH 296 0
DWIDTH 5 0
BBX 4 11 0 0
VVECTOR 2 14
SWIDTH1 0 -1005
DWIDTH1 0 -17
BITMAP 
30
40
40
F0
40
40
40
40
40
40
E0
ENDCHAR
STARTCHAR g
ENCODING 103
SWIDTH 591 0
DWIDTH 10 0
BBX 9 11 0 -3
VVECTOR 5 14
SWIDTH1 0 -1005
DWIDTH1 0 -17
BITMAP 
3D80
4300
8100
8100
8100
8100
4300
3D00
0100
4200
3C00
ENDCHAR
STARTCHAR h
ENCODING 104
SWIDTH 650 0
DWIDTH 11 0
BBX 10 11 0 0
VVECTOR 5 14
SWIDTH1 0 -1005
DWIDTH1 0 -17
BITMAP 
C000
4000
4000
5E00
6100
4080
4080
4080
4080
4080
E1C0
ENDCHAR
STARTCHAR i
ENCODING 105
SWIDTH 296 0
DWIDTH 5 0
BBX 3 11 1 0
VVECTOR 3 14
SWIDTH1 0 -1005
DWIDTH1 0 -17
BITMAP 
40
40
00
C0
40
40
40
40
40
40
E0
ENDCHAR
STARTCHAR j
ENCODING 106
SWIDTH 473 0
DWIDTH 8 0
BBX 6 14 0 -3
VVECTOR 3 14
SWIDTH1 0 -1005
DWIDTH1 0 -17
BITMAP 
04
04
00
0C
04
04
04
04
04
04
04
04
88
70
ENDCHAR
STARTCHAR k
ENCODING 107
SWIDTH 532 0
DWIDTH 9 0
BBX 8 11 0 0
VVECTOR 4 14
SWIDTH1 0 -1005
DWIDTH1 0 -17
BITMAP 
C0
40
40
46
48
50
60
50
48
44
E3
ENDCHAR
STARTCHAR l
ENCODING 108
SWIDTH 296 0
DWIDTH 5 0
BBX 3 11 1 0
VVECTOR 3 14
SWIDTH1 0 -1005
DWIDTH1 0 -17
BITMAP 
C0
40
40
40
40
40
40
40
40
40
E0
ENDCHAR
STARTCHAR m
ENCODING 109
SWIDTH 946 0
DWIDTH 16 0
BBX 15 8 0 0
VVECTOR 8 14
SWIDTH1 0 -1005
DWIDTH1 0 -17
BITMAP 
DC70
6288
4104
4104
4104
4104
4104
E38E
ENDCHAR
STARTCHAR n
ENCODING 110
SWIDTH 650 0
DWIDTH 11 0
BBX 10 8 0 0
VVECTOR 5 14
SWIDTH1 0 -1005
DWIDTH1 0 -17
BITMAP 
DE00
6100
4080
4080
4080
4080
4080
E1C0
ENDCHAR
STARTCHAR o
ENCODING 111
SWIDTH 532 0
DWIDTH 9 0
BBX 8 8 0 0
VVECTOR 4 14
SWIDTH1 0 -1005
DWIDTH1 0 -17
BITMAP 
3C
42
81
81
81
81
42
3C
ENDCHAR
STARTCHAR p
ENCODING 112
SWIDTH 591 0
DWIDTH 10 0
BBX 9 11 0 -3
VVECTOR 5 14
SWIDTH1 0 -1005
DWIDTH1 0 -17
BITMAP 
DE00
6100
4080
4080
4080
4080
6100
5E00
4000
4000
E000
ENDCHAR
STARTCHAR q
ENCODING 113
SWIDTH 591 0
DWIDTH 10 0
BBX 9 11 0 -3
VVECTOR 5 14
SWIDTH1 0 -1005
DWIDTH1 0 -17
BITMAP 
3D80
4300
8100
8100
8100
8100
4300
3D00
0100
0100
0380
ENDCHAR
STARTCHAR r
ENCODING 114
SWIDTH 532 0
DWIDTH 9 0
BBX 8 8 0 0
VVECTOR 4 14
SWIDTH1 0 -1005
DWIDTH1 0 -17
BITMAP 
DE
61
40
40
40
40
40
E0
ENDCHAR
STARTCHAR s
ENCODING 115
SWIDTH 473 0
DWIDTH 8 0
BBX 7 8 0 0
VVECTOR 4 14
SWIDTH1 0 -1005
DWIDTH1 0 -17
BITMAP 
7C
82
80
7C
02
02
82
7C
ENDCHAR
STARTCHAR t
ENCODING 116
SWIDTH 414 0
DWIDTH 7 0
BBX 6 11 0 0
VVECTOR 3 14
SWIDTH1 0 -1005
DWIDTH1 0 -17
BITMAP 
C0
40
40
F0
40
40
40
40
44
44
38
ENDCHAR
STARTCHAR u
ENCODING 117
SWIDTH 650 0
DWIDTH 11 0
BBX 10 8 0 0
VVECTOR 5 14
SWIDTH1 0 -1005
DWIDTH1 0 -17
BITMAP 
C180
4080
4080
4080
4080
4080
2180
1EC0
ENDCHAR
STARTCHAR v
ENCODING 118
SWIDTH 591 0
DWIDTH 10 0
BBX 9 8 0 0
VVECTOR 5 14
SWIDTH1 0 -1005
DWIDTH1 0 -17
BITMAP 
E380
4100
2200
2200
1400
1400
0800
0800
ENDCHAR
STARTCHAR w
ENCODING 119
SWIDTH 828 0
DWIDTH 14 0
BBX 13 8 0 0
VVECTOR 7 14
SWIDTH1 0 -1005
DWIDTH1 0 -17
BITMAP 
E038
4010
2220
2220
1540
1540
0880
0880
ENDCHAR
STARTCHAR x
ENCODING 120
SWIDTH 591 0
DWIDTH 10 0
BBX 9 8 0 0
VVECTOR 5 14
SWIDTH1 0 -1005
DWIDTH1 0 -17
BITMAP 
F780
2200
1400
0800
0800
1400
2200
F780
ENDCHAR
STARTCHAR y
ENCODING 121
SWIDTH 650 0
DWIDTH 11 0
BBX 10 11 0 -3
VVECTOR 5 14
SWIDTH1 0 -1005
DWIDTH1 0 -17
BITMAP 
E1C0
4080
4080
4080
4080
4080
2180
1E80
0080
2100
1E00
ENDCHAR
STARTCHAR z
ENCODING 122
SWIDTH 473 0
DWIDTH 8 0
BBX 7 8 0 0
VVECTOR 4 14
SWIDTH1 0 -1005
DWIDTH1 0 -17
BITMAP 
FE
84
08
10
20
40
82
FE
ENDCHAR
STARTCHAR braceleft
ENCODING 123
SWIDTH 355 0
DWIDTH 6 0
BBX 4 13 1 -1
VVECTOR 3 14
SWIDTH1 0 -1005
DWIDTH1 0 -17
BITMAP 
30
40
40
40
40
40
80
40
40
40
40
40
30
ENDCHAR
STARTCHAR bar
ENCODING 124
SWIDTH 177 0
DWIDTH 3 0
BBX 1 13 1 -1
VVECTOR 2 14
SWIDTH1 0 -1005
DWIDTH1 0 -17
BITMAP 
80
80
80
80
80
80
80
80
80
80
80
80
80
ENDCHAR
STARTCHAR braceright
ENCODING 125
SWIDTH 355 0
DWIDTH 6 0
BBX 4 13 1 -1
VVECTOR 3 14
SWIDTH1 0 -1005
DWIDTH1 0 -17
BITMAP 
C0
20
20
20
20
20
10
20
20
20
20
20
C0
ENDCHAR
STARTCHAR asciitilde
ENCODING 126
SWIDTH 532 0
DWIDTH 9 0
BBX 8 2 0 6
VVECTOR 4 14
SWIDTH1 0 -1005
DWIDTH1 0 -17
BITMAP 
71
8E
ENDCHAR
STARTCHAR char7F
ENCODING 127
SWIDTH 0 0
DWIDTH 0 0
BBX 0 0 0 -3
VVECTOR 0 -3
SWIDTH1 0 0
DWIDTH1 0 0
BITMAP 
ENDCHAR
STARTCHAR Adieresis
ENCODING 128
SWIDTH 768 0
DWIDTH 13 0
BBX 11 13 1 0
VVECTOR 7 14
SWIDTH1 0 -1005
DWIDTH1 0 -17
BITMAP 
0A00
0000
0400
0400
0A00
0A00
1100
1100
2080
3F80
4040
4040
E0E0
ENDCHAR
STARTCHAR Aring
ENCODING 129
SWIDTH 768 0
DWIDTH 13 0
BBX 11 13 1 0
VVECTOR 7 14
SWIDTH1 0 -1005
DWIDTH1 0 -17
BITMAP 
0E00
1100
1100
0E00
0A00
0A00
1100
1100
2080
3F80
4040
4040
E0E0
ENDCHAR
STARTCHAR Ccedilla
ENCODING 130
SWIDTH 709 0
DWIDTH 12 0
BBX 10 14 1 -3
VVECTOR 6 14
SWIDTH1 0 -1005
DWIDTH1 0 -17
BITMAP 
1F00
2080
4040
8040
8000
8000
8000
8040
4040
2080
1F00
0400
0400
0800
ENDCHAR
STARTCHAR Eacute
ENCODING 131
SWIDTH 591 0
DWIDTH 10 0
BBX 8 13 1 0
VVECTOR 5 14
SWIDTH1 0 -1005
DWIDTH1 0 -17
BITMAP 
08
10
FF
41
40
40
44
7C
44
40
40
41
FF
ENDCHAR
STARTCHAR Ntilde
ENCODING 132
SWIDTH 768 0
DWIDTH 13 0
BBX 11 14 1 0
VVECTOR 7 14
SWIDTH1 0 -1005
DWIDTH1 0 -17
BITMAP 
0C80
1300
0000
CF00
5080
6040
4040
4040
4040
4040
4040
4040
4040
E0E0
ENDCHAR
STARTCHAR Odieresis
ENCODING 133
SWIDTH 768 0
DWIDTH 13 0
BBX 11 13 1 0
VVECTOR 7 14
SWIDTH1 0 -1005
DWIDTH1 0 -17
BITMAP 
0900
0000
1F00
2080
4040
8020
8020
8020
8020
8020
4040
2080
1F00
ENDCHAR
STARTCHAR Udieresis
ENCODING 134
SWIDTH 768 0
DWIDTH 13 0
BBX 11 13 1 0
VVECTOR 7 14
SWIDTH1 0 -1005
DWIDTH1 0 -17
BITMAP 
1200
0000
C0C0
4040
4040
4040
4040
4040
4040
4040
40C0
2140
1E60
ENDCHAR
STARTCHAR aacute
ENCODING 135
SWIDTH 591 0
DWIDTH 10 0
BBX 9 11 0 0
VVECTOR 5 14
SWIDTH1 0 -1005
DWIDTH1 0 -17
BITMAP 
0400
0800
0000
3F00
4100
8100
8100
8100
8100
4300
3D80
ENDCHAR
STARTCHAR agrave
ENCODING 136
SWIDTH 591 0
DWIDTH 10 0
BBX 9 11 0 0
VVECTOR 5 14
SWIDTH1 0 -1005
DWIDTH1 0 -17
BITMAP 
0800
0400
0000
3F00
4100
8100
8100
8100
8100
4300
3D80
ENDCHAR
STARTCHAR acircumflex
ENCODING 137
SWIDTH 591 0
DWIDTH 10 0
BBX 9 12 0 0
VVECTOR 5 14
SWIDTH1 0 -1005
DWIDTH1 0 -17
BITMAP 
0800
1400
2200
0000
3F00
4100
8100
8100
8100
8100
4300
3D80
ENDCHAR
STARTCHAR adieresis
ENCODING 138
SWIDTH 591 0
DWIDTH 10 0
BBX 9 10 0 0
VVECTOR 5 14
SWIDTH1 0 -1005
DWIDTH1 0 -17
BITMAP 
0A00
0000
3F00
4100
8100
8100
8100
8100
4300
3D80
ENDCHAR
STARTCHAR atilde
ENCODING 139
SWIDTH 591 0
DWIDTH 10 0
BBX 9 11 0 0
VVECTOR 5 14
SWIDTH1 0 -1005
DWIDTH1 0 -17
BITMAP 
1900
2600
0000
3F00
4100
8100
8100
8100
8100
4300
3D80
ENDCHAR
STARTCHAR aring
ENCODING 140
SWIDTH 591 0
DWIDTH 10 0
BBX 9 13 0 0
VVECTOR 5 14
SWIDTH1 0 -1005
DWIDTH1 0 -17
BITMAP 
0C00
1200
1200
0C00
0000
3F00
4100
8100
8100
8100
8100
4300
3D80
ENDCHAR
STARTCHAR ccedilla
ENCODING 141
SWIDTH 473 0
DWIDTH 8 0
BBX 7 11 0 -3
VVECTOR 4 14
SWIDTH1 0 -1005
DWIDTH1 0 -17
BITMAP 
3C
42
80
80
80
80
42
3C
08
08
10
ENDCHAR
STARTCHAR eacute
ENCODING 142
SWIDTH 532 0
DWIDTH 9 0
BBX 8 11 0 0
VVECTOR 4 14
SWIDTH1 0 -1005
DWIDTH1 0 -17
BITMAP 
04
08
00
3C
42
81
FF
80
81
42
3C
ENDCHAR
STARTCHAR egrave
ENCODING 143
SWIDTH 532 0
DWIDTH 9 0
BBX 8 11 0 0
VVECTOR 4 14
SWIDTH1 0 -1005
DWIDTH1 0 -17
BITMAP 
10
08
00
3C
42
81
FF
80
81
42
3C
ENDCHAR
STARTCHAR ecircumflex
ENCODING 144
SWIDTH 532 0
DWIDTH 9 0
BBX 8 12 0 0
VVECTOR 4 14
SWIDTH1 0 -1005
DWIDTH1 0 -17
BITMAP 
08
14
22
00
3C
42
81
FF
80
81
42
3C
ENDCHAR
STARTCHAR edieresis
ENCODING 145
SWIDTH 532 0
DWIDTH 9 0
BBX 8 10 0 0
VVECTOR 4 14
SWIDTH1 0 -1005
DWIDTH1 0 -17
BITMAP 
24
00
3C
42
81
FF
80
81
42
3C
ENDCHAR
STARTCHAR iacute
ENCODING 146
SWIDTH 296 0
DWIDTH 5 0
BBX 3 11 1 0
VVECTOR 3 14
SWIDTH1 0 -1005
DWIDTH1 0 -17
BITMAP 
40
80
00
C0
40
40
40
40
40
40
E0
ENDCHAR
STARTCHAR igrave
ENCODING 147
SWIDTH 296 0
DWIDTH 5 0
BBX 3 11 1 0
VVECTOR 3 14
SWIDTH1 0 -1005
DWIDTH1 0 -17
BITMAP 
80
40
00
C0
40
40
40
40
40
40
E0
ENDCHAR
STARTCHAR icircumflex
ENCODING 148
SWIDTH 355 0
DWIDTH 6 0
BBX 5 12 1 0
VVECTOR 4 14
SWIDTH1 0 -1005
DWIDTH1 0 -17
BITMAP 
20
50
88
00
60
20
20
20
20
20
20
70
ENDCHAR
STARTCHAR idieresis
ENCODING 149
SWIDTH 296 0
DWIDTH 5 0
BBX 3 10 1 0
VVECTOR 3 14
SWIDTH1 0 -1005
DWIDTH1 0 -17
BITMAP 
A0
00
C0
40
40
40
40
40
40
E0
ENDCHAR
STARTCHAR ntilde
ENCODING 150
SWIDTH 650 0
DWIDTH 11 0
BBX 10 11 0 0
VVECTOR 5 14
SWIDTH1 0 -1005
DWIDTH1 0 -17
BITMAP 
3200
4C00
0000
DE00
6100
4080
4080
4080
4080
4080
E1C0
ENDCHAR
STARTCHAR oacute
ENCODING 151
SWIDTH 532 0
DWIDTH 9 0
BBX 8 11 0 0
VVECTOR 4 14
SWIDTH1 0 -1005
DWIDTH1 0 -17
BITMAP 
04
08
00
3C
42
81
81
81
81
42
3C
ENDCHAR
STARTCHAR ograve
ENCODING 152
SWIDTH 532 0
DWIDTH 9 0
BBX 8 11 0 0
VVECTOR 4 14
SWIDTH1 0 -1005
DWIDTH1 0 -17
BITMAP 
10
08
00
3C
42
81
81
81
81
42
3C
ENDCHAR
STARTCHAR ocircumflex
ENCODING 153
SWIDTH 532 0
DWIDTH 9 0
BBX 8 12 0 0
VVECTOR 4 14
SWIDTH1 0 -1005
DWIDTH1 0 -17
BITMAP 
08
14
22
00
3C
42
81
81
81
81
42
3C
ENDCHAR
STARTCHAR odieresis
ENCODING 154
SWIDTH 532 0
DWIDTH 9 0
BBX 8 10 0 0
VVECTOR 4 14
SWIDTH1 0 -1005
DWIDTH1 0 -17
BITMAP 
14
00
3C
42
81
81
81
81
42
3C
ENDCHAR
STARTCHAR otilde
ENCODING 155
SWIDTH 532 0
DWIDTH 9 0
BBX 8 11 0 0
VVECTOR 4 14
SWIDTH1 0 -1005
DWIDTH1 0 -17
BITMAP 
32
4C
00
3C
42
81
81
81
81
42
3C
ENDCHAR
STARTCHAR uacute
ENCODING 156
SWIDTH 650 0
DWIDTH 11 0
BBX 10 11 0 0
VVECTOR 5 14
SWIDTH1 0 -1005
DWIDTH1 0 -17
BITMAP 
0400
0800
0000
C180
4080
4080
4080
4080
4080
2180
1EC0
ENDCHAR
STARTCHAR ugrave
ENCODING 157
SWIDTH 650 0
DWIDTH 11 0
BBX 10 11 0 0
VVECTOR 5 14
SWIDTH1 0 -1005
DWIDTH1 0 -17
BITMAP 
0800
0400
0000
C180
4080
4080
4080
4080
4080
2180
1EC0
ENDCHAR
STARTCHAR ucircumflex
ENCODING 158
SWIDTH 650 0
DWIDTH 11 0
BBX 10 12 0 0
VVECTOR 5 14
SWIDTH1 0 -1005
DWIDTH1 0 -17
BITMAP 
0800
1400
2200
0000
C180
4080
4080
4080
4080
4080
2180
1EC0
ENDCHAR
STARTCHAR udieresis
ENCODING 159
SWIDTH 650 0
DWIDTH 11 0
BBX 10 10 0 0
VVECTOR 5 14
SWIDTH1 0 -1005
DWIDTH1 0 -17
BITMAP 
1200
0000
C180
4080
4080
4080
4080
4080
2180
1EC0
ENDCHAR
STARTCHAR dagger
ENCODING 160
SWIDTH 236 0
DWIDTH 4 0
BBX 3 6 0 6
VVECTOR 2 14
SWIDTH1 0 -1005
DWIDTH1 0 -17
BITMAP 
40
E0
40
40
40
40
ENDCHAR
STARTCHAR degree
ENCODING 161
SWIDTH 296 0
DWIDTH 5 0
BBX 4 4 0 8
VVECTOR 2 14
SWIDTH1 0 -1005
DWIDTH1 0 -17
BITMAP 
60
90
90
60
ENDCHAR
STARTCHAR cent
ENCODING 162
SWIDTH 414 0
DWIDTH 7 0
BBX 6 11 0 0
VVECTOR 3 14
SWIDTH1 0 -1005
DWIDTH1 0 -17
BITMAP 
10
10
38
54
90
90
90
54
38
10
10
ENDCHAR
STARTCHAR sterling
ENCODING 163
SWIDTH 650 0
DWIDTH 11 0
BBX 9 11 1 0
VVECTOR 6 14
SWIDTH1 0 -1005
DWIDTH1 0 -17
BITMAP 
1C00
2200
4000
4000
4000
F800
4000
4080
4080
4100
FE00
ENDCHAR
STARTCHAR section
ENCODING 164
SWIDTH 414 0
DWIDTH 7 0
BBX 6 11 0 0
VVECTOR 3 14
SWIDTH1 0 -1005
DWIDTH1 0 -17
BITMAP 
70
88
80
60
98
84
64
18
08
88
70
ENDCHAR
STARTCHAR bullet
ENCODING 165
SWIDTH 532 0
DWIDTH 9 0
BBX 5 5 2 3
VVECTOR 5 14
SWIDTH1 0 -1005
DWIDTH1 0 -17
BITMAP 
70
F8
F8
F8
70
ENDCHAR
STARTCHAR paragraph
ENCODING 166
SWIDTH 591 0
DWIDTH 10 0
BBX 8 11 1 0
VVECTOR 5 14
SWIDTH1 0 -1005
DWIDTH1 0 -17
BITMAP 
3F
4A
8A
8A
8A
4A
3E
0A
0A
0A
0A
ENDCHAR
STARTCHAR germandbls
ENCODING 167
SWIDTH 532 0
DWIDTH 9 0
BBX 8 11 0 0
VVECTOR 4 14
SWIDTH1 0 -1005
DWIDTH1 0 -17
BITMAP 
1C
22
42
42
4C
42
41
41
41
42
DC
ENDCHAR
STARTCHAR registered
ENCODING 168
SWIDTH 591 0
DWIDTH 10 0
BBX 8 8 1 0
VVECTOR 5 14
SWIDTH1 0 -1005
DWIDTH1 0 -17
BITMAP 
3C
42
B9
A5
B9
A5
42
3C
ENDCHAR
STARTCHAR copyright
ENCODING 169
SWIDTH 591 0
DWIDTH 10 0
BBX 8 8 1 0
VVECTOR 5 14
SWIDTH1 0 -1005
DWIDTH1 0 -17
BITMAP 
3C
42
99
A1
A1
99
42
3C
ENDCHAR
STARTCHAR trademark
ENCODING 170
SWIDTH 650 0
DWIDTH 11 0
BBX 9 4 1 7
VVECTOR 6 14
SWIDTH1 0 -1005
DWIDTH1 0 -17
BITMAP 
E880
4D80
4A80
4880
ENDCHAR
STARTCHAR acute
ENCODING 171
SWIDTH 236 0
DWIDTH 4 0
BBX 3 3 0 8
VVECTOR 2 14
SWIDTH1 0 -1005
DWIDTH1 0 -17
BITMAP 
20
40
80
ENDCHAR
STARTCHAR dieresis
ENCODING 172
SWIDTH 236 0
DWIDTH 4 0
BBX 3 1 0 10
VVECTOR 2 14
SWIDTH1 0 -1005
DWIDTH1 0 -17
BITMAP 
A0
ENDCHAR
STARTCHAR AE
ENCODING 174
SWIDTH 946 0
DWIDTH 16 0
BBX 14 11 1 0
VVECTOR 8 14
SWIDTH1 0 -1005
DWIDTH1 0 -17
BITMAP 
03FC
0504
0500
0900
0910
11F0
1F10
2100
2100
4104
E3FC
ENDCHAR
STARTCHAR Oslash
ENCODING 175
SWIDTH 768 0
DWIDTH 13 0
BBX 11 11 1 0
VVECTOR 7 14
SWIDTH1 0 -1005
DWIDTH1 0 -17
BITMAP 
1F00
20A0
4040
80A0
8120
8220
8420
8820
5040
2080
5F00
ENDCHAR
STARTCHAR yen
ENCODING 180
SWIDTH 650 0
DWIDTH 11 0
BBX 9 11 1 0
VVECTOR 6 14
SWIDTH1 0 -1005
DWIDTH1 0 -17
BITMAP 
8080
4100
2200
7700
0800
0800
7F00
0800
0800
0800
0800
ENDCHAR
STARTCHAR ordfeminine
ENCODING 187
SWIDTH 532 0
DWIDTH 9 0
BBX 8 9 0 2
VVECTOR 4 14
SWIDTH1 0 -1005
DWIDTH1 0 -17
BITMAP 
3E
42
82
82
82
46
3B
00
FF
ENDCHAR
STARTCHAR ordmasculine
ENCODING 188
SWIDTH 473 0
DWIDTH 8 0
BBX 7 9 0 2
VVECTOR 4 14
SWIDTH1 0 -1005
DWIDTH1 0 -17
BITMAP 
38
44
82
82
82
44
38
00
FE
ENDCHAR
STARTCHAR ae
ENCODING 190
SWIDTH 828 0
DWIDTH 14 0
BBX 13 8 0 0
VVECTOR 7 14
SWIDTH1 0 -1005
DWIDTH1 0 -17
BITMAP 
3EE0
4310
8208
83F8
8200
8208
4710
3AE0
ENDCHAR
STARTCHAR oslash
ENCODING 191
SWIDTH 532 0
DWIDTH 9 0
BBX 8 8 0 0
VVECTOR 4 14
SWIDTH1 0 -1005
DWIDTH1 0 -17
BITMAP 
1D
22
45
49
51
61
62
9C
ENDCHAR
STARTCHAR questiondown
ENCODING 192
SWIDTH 591 0
DWIDTH 10 0
BBX 8 11 1 0
VVECTOR 5 14
SWIDTH1 0 -1005
DWIDTH1 0 -17
BITMAP 
10
00
10
10
20
40
80
81
81
42
3C
ENDCHAR
STARTCHAR exclamdown
ENCODING 193
SWIDTH 236 0
DWIDTH 4 0
BBX 1 11 1 0
VVECTOR 2 14
SWIDTH1 0 -1005
DWIDTH1 0 -17
BITMAP 
80
00
80
80
80
80
80
80
80
80
80
ENDCHAR
STARTCHAR guillemotleft
ENCODING 199
SWIDTH 532 0
DWIDTH 9 0
BBX 7 7 1 0
VVECTOR 5 14
SWIDTH1 0 -1005
DWIDTH1 0 -17
BITMAP 
12
24
48
90
48
24
12
ENDCHAR
STARTCHAR guillemotright
ENCODING 200
SWIDTH 532 0
DWIDTH 9 0
BBX 7 7 1 0
VVECTOR 5 14
SWIDTH1 0 -1005
DWIDTH1 0 -17
BITMAP 
90
48
24
12
24
48
90
ENDCHAR
STARTCHAR ellipsis
ENCODING 201
SWIDTH 532 0
DWIDTH 9 0
BBX 7 1 1 0
VVECTOR 5 14
SWIDTH1 0 -1005
DWIDTH1 0 -17
BITMAP 
92
ENDCHAR
STARTCHAR uni00A0
ENCODING 202
SWIDTH 591 0
DWIDTH 10 0
BBX 0 0 10 -3
VVECTOR 10 -3
SWIDTH1 0 0
DWIDTH1 0 0
BITMAP 
ENDCHAR
STARTCHAR Agrave
ENCODING 203
SWIDTH 768 0
DWIDTH 13 0
BBX 11 14 1 0
VVECTOR 7 14
SWIDTH1 0 -1005
DWIDTH1 0 -17
BITMAP 
0800
0400
0200
0400
0400
0A00
0A00
1100
1100
2080
3F80
4040
4040
E0E0
ENDCHAR
STARTCHAR Atilde
ENCODING 204
SWIDTH 768 0
DWIDTH 13 0
BBX 11 13 1 0
VVECTOR 7 14
SWIDTH1 0 -1005
DWIDTH1 0 -17
BITMAP 
0C80
1300
0400
0400
0A00
0A00
1100
1100
2080
3F80
4040
4040
E0E0
ENDCHAR
STARTCHAR Otilde
ENCODING 205
SWIDTH 768 0
DWIDTH 13 0
BBX 11 14 1 0
VVECTOR 7 14
SWIDTH1 0 -1005
DWIDTH1 0 -17
BITMAP 
1900
2600
0000
1F00
2080
4040
8020
8020
8020
8020
8020
4040
2080
1F00
ENDCHAR
STARTCHAR OE
ENCODING 206
SWIDTH 1064 0
DWIDTH 18 0
BBX 16 11 1 0
VVECTOR 9 14
SWIDTH1 0 -1005
DWIDTH1 0 -17
BITMAP 
1F7F
20C1
4040
8040
8044
807C
8044
8040
4040
20C1
1F7F
ENDCHAR
STARTCHAR oe
ENCODING 207
SWIDTH 946 0
DWIDTH 16 0
BBX 15 8 0 0
VVECTOR 8 14
SWIDTH1 0 -1005
DWIDTH1 0 -17
BITMAP 
3C78
4284
8102
81FE
8100
8102
4284
3C78
ENDCHAR
STARTCHAR endash
ENCODING 208
SWIDTH 414 0
DWIDTH 7 0
BBX 5 1 1 4
VVECTOR 4 14
SWIDTH1 0 -1005
DWIDTH1 0 -17
BITMAP 
F8
ENDCHAR
STARTCHAR emdash
ENCODING 209
SWIDTH 591 0
DWIDTH 10 0
BBX 9 1 0 4
VVECTOR 5 14
SWIDTH1 0 -1005
DWIDTH1 0 -17
BITMAP 
FF80
ENDCHAR
STARTCHAR quotedblleft
ENCODING 210
SWIDTH 355 0
DWIDTH 6 0
BBX 4 3 1 8
VVECTOR 3 14
SWIDTH1 0 -1005
DWIDTH1 0 -17
BITMAP 
50
A0
A0
ENDCHAR
STARTCHAR quotedblright
ENCODING 211
SWIDTH 355 0
DWIDTH 6 0
BBX 4 3 1 8
VVECTOR 3 14
SWIDTH1 0 -1005
DWIDTH1 0 -17
BITMAP 
50
50
A0
ENDCHAR
STARTCHAR quoteleft
ENCODING 212
SWIDTH 236 0
DWIDTH 4 0
BBX 2 3 1 8
VVECTOR 2 14
SWIDTH1 0 -1005
DWIDTH1 0 -17
BITMAP 
40
80
80
ENDCHAR
STARTCHAR quoteright
ENCODING 213
SWIDTH 236 0
DWIDTH 4 0
BBX 2 3 1 8
VVECTOR 2 14
SWIDTH1 0 -1005
DWIDTH1 0 -17
BITMAP 
40
40
80
ENDCHAR
STARTCHAR lozenge
ENCODING 215
SWIDTH 532 0
DWIDTH 9 0
BBX 7 8 1 2
VVECTOR 5 14
SWIDTH1 0 -1005
DWIDTH1 0 -17
BITMAP 
10
28
44
82
82
44
28
10
ENDCHAR
STARTCHAR ydieresis
ENCODING 216
SWIDTH 650 0
DWIDTH 11 0
BBX 10 13 0 -3
VVECTOR 5 14
SWIDTH1 0 -1005
DWIDTH1 0 -17
BITMAP 
2200
0000
E1C0
4080
4080
4080
4080
4080
2180
1E80
0080
2100
1E00
ENDCHAR
STARTCHAR Ydieresis
ENCODING 217
SWIDTH 887 0
DWIDTH 15 0
BBX 13 15 1 -2
VVECTOR 8 14
SWIDTH1 0 -1005
DWIDTH1 0 -17
BITMAP 
00F0
09E0
0580
0200
3AE0
7DF0
FFD8
FFE8
FFE8
FFF8
FFF8
7FF0
7FF0
3FE0
1DC0
ENDCHAR
STARTCHAR missing
ENCODING -1
SWIDTH 887 0
DWIDTH 15 0
BBX 11 12 2 0
VVECTOR 8 14
SWIDTH1 0 -1005
DWIDTH1 0 -17
BITMAP 
FFE0
8020
8020
8020
8020
8020
8020
8020
8020
8020
8020
FFE0
ENDCHAR
ENDFONT
